HIERARCHY
ROOT Root
{
  OFFSET 0.0 0.0 0.0
  CHANNELS 6 Xposition Yposition Zposition Zrotation Yrotation Xrotation
  JOINT Hips
  {
    OFFSET 0.0 100.0 0.0
    CHANNELS 6 Xposition Yposition Zposition Zrotation Yrotation Xrotation
    JOINT Spine1
    {
      OFFSET 5.003913 -0.037094 -0.013727
      CHANNELS 3 Zrotation Yrotation Xrotation
      JOINT Spine2
      {
        OFFSET 7.125363 -1e-06 0.0
        CHANNELS 3 Zrotation Yrotation Xrotation
        JOINT Chest
        {
          OFFSET 7.594027 1e-06 0.0
          CHANNELS 3 Zrotation Yrotation Xrotation
          JOINT Neck1
          {
            OFFSET 26.313086 -0.460272 -0.181672
            CHANNELS 3 Zrotation Yrotation Xrotation
            JOINT Neck2
            {
              OFFSET 8.045911 0.0 0.0
              CHANNELS 3 Zrotation Yrotation Xrotation
              JOINT Head
              {
                OFFSET 6.432774 0.0 0.0
                CHANNELS 3 Zrotation Yrotation Xrotation
                JOINT HeadEnd
                {
                  OFFSET 16.169773 0.06451 0.00362
                  CHANNELS 3 Zrotation Yrotation Xrotation
                }
                JOINT Jaw
                {
                  OFFSET 0.108741 3.12938 0.002639
                  CHANNELS 3 Zrotation Yrotation Xrotation
                }
                JOINT LeftEye
                {
                  OFFSET 4.45173 8.166359 3.206392
                  CHANNELS 3 Zrotation Yrotation Xrotation
                }
                JOINT RightEye
                {
                  OFFSET 4.436895 8.135758 -3.222429
                  CHANNELS 3 Zrotation Yrotation Xrotation
                }
              }
            }
          }
          JOINT LeftShoulder
          {
            OFFSET 23.218927 5.195579 1.621656
            CHANNELS 3 Zrotation Yrotation Xrotation
            JOINT LeftArm
            {
              OFFSET 15.902118 2e-06 -2e-06
              CHANNELS 3 Zrotation Yrotation Xrotation
              JOINT LeftForeArm
              {
                OFFSET 28.739307 0.0 -1e-06
                CHANNELS 3 Zrotation Yrotation Xrotation
                JOINT LeftHand
                {
                  OFFSET 27.093981 -4e-06 0.0
                  CHANNELS 3 Zrotation Yrotation Xrotation
                  JOINT LeftHandThumb1
                  {
                    OFFSET 2.276781 3.380274 0.83384
                    CHANNELS 3 Zrotation Yrotation Xrotation
                    JOINT LeftHandThumb2
                    {
                      OFFSET 4.705309 -1e-06 -1e-06
                      CHANNELS 3 Zrotation Yrotation Xrotation
                      JOINT LeftHandThumb3
                      {
                        OFFSET 2.798515 0.0 3e-06
                        CHANNELS 3 Zrotation Yrotation Xrotation
                        JOINT LeftHandThumbEnd
                        {
                          OFFSET 3.180793 4e-06 -4e-06
                          CHANNELS 3 Zrotation Yrotation Xrotation
                        }
                      }
                    }
                  }
                  JOINT LeftHandIndex1
                  {
                    OFFSET 3.247786 2.352677 0.137192
                    CHANNELS 3 Zrotation Yrotation Xrotation
                    JOINT LeftHandIndex2
                    {
                      OFFSET 6.367095 1e-06 0.0
                      CHANNELS 3 Zrotation Yrotation Xrotation
                      JOINT LeftHandIndex3
                      {
                        OFFSET 3.662364 0.0 0.0
                        CHANNELS 3 Zrotation Yrotation Xrotation
                        JOINT LeftHandIndex4
                        {
                          OFFSET 2.329242 4e-06 -4e-06
                          CHANNELS 3 Zrotation Yrotation Xrotation
                          JOINT LeftHandIndexEnd
                          {
                            OFFSET 2.767823 1e-06 0.0
                            CHANNELS 3 Zrotation Yrotation Xrotation
                          }
                        }
                      }
                    }
                  }
                  JOINT LeftHandMiddle1
                  {
                    OFFSET 3.163612 0.945023 -0.406112
                    CHANNELS 3 Zrotation Yrotation Xrotation
                    JOINT LeftHandMiddle2
                    {
                      OFFSET 6.276789 3e-06 0.0
                      CHANNELS 3 Zrotation Yrotation Xrotation
                      JOINT LeftHandMiddle3
                      {
                        OFFSET 4.35652 -1e-06 4e-06
                        CHANNELS 3 Zrotation Yrotation Xrotation
                        JOINT LeftHandMiddle4
                        {
                          OFFSET 2.996877 0.0 8e-06
                          CHANNELS 3 Zrotation Yrotation Xrotation
                          JOINT LeftHandMiddleEnd
                          {
                            OFFSET 2.323256 3e-06 -4e-06
                            CHANNELS 3 Zrotation Yrotation Xrotation
                          }
                        }
                      }
                    }
                  }
                  JOINT LeftHandRing1
                  {
                    OFFSET 2.882606 -0.309162 0.107445
                    CHANNELS 3 Zrotation Yrotation Xrotation
                    JOINT LeftHandRing2
                    {
                      OFFSET 6.033198 0.0 4e-06
                      CHANNELS 3 Zrotation Yrotation Xrotation
                      JOINT LeftHandRing3
                      {
                        OFFSET 4.350578 3e-06 0.0
                        CHANNELS 3 Zrotation Yrotation Xrotation
                        JOINT LeftHandRing4
                        {
                          OFFSET 2.651321 2e-06 -7e-06
                          CHANNELS 3 Zrotation Yrotation Xrotation
                          JOINT LeftHandRingEnd
                          {
                            OFFSET 1.937663 1e-06 -4e-06
                            CHANNELS 3 Zrotation Yrotation Xrotation
                          }
                        }
                      }
                    }
                  }
                  JOINT LeftHandPinky1
                  {
                    OFFSET 2.865315 -1.525436 0.575687
                    CHANNELS 3 Zrotation Yrotation Xrotation
                    JOINT LeftHandPinky2
                    {
                      OFFSET 5.54936 1e-06 -8e-06
                      CHANNELS 3 Zrotation Yrotation Xrotation
                      JOINT LeftHandPinky3
                      {
                        OFFSET 3.070974 0.0 -4e-06
                        CHANNELS 3 Zrotation Yrotation Xrotation
                        JOINT LeftHandPinky4
                        {
                          OFFSET 1.549672 1e-06 0.0
                          CHANNELS 3 Zrotation Yrotation Xrotation
                          JOINT LeftHandPinkyEnd
                          {
                            OFFSET 1.952123 0.0 0.0
                            CHANNELS 3 Zrotation Yrotation Xrotation
                          }
                        }
                      }
                    }
                  }
                }
              }
            }
          }
          JOINT RightShoulder
          {
            OFFSET 23.161716 5.296122 -1.380114
            CHANNELS 3 Zrotation Yrotation Xrotation
            JOINT RightArm
            {
              OFFSET -16.027195 -2e-06 1.1e-05
              CHANNELS 3 Zrotation Yrotation Xrotation
              JOINT RightForeArm
              {
                OFFSET -28.736639 4e-06 2e-06
                CHANNELS 3 Zrotation Yrotation Xrotation
                JOINT RightHand
                {
                  OFFSET -27.133619 6e-06 0.0
                  CHANNELS 3 Zrotation Yrotation Xrotation
                  JOINT RightHandThumb1
                  {
                    OFFSET -2.274328 -3.351035 -0.83067
                    CHANNELS 3 Zrotation Yrotation Xrotation
                    JOINT RightHandThumb2
                    {
                      OFFSET -4.703594 -3e-06 2e-06
                      CHANNELS 3 Zrotation Yrotation Xrotation
                      JOINT RightHandThumb3
                      {
                        OFFSET -2.794935 -4e-06 -3e-06
                        CHANNELS 3 Zrotation Yrotation Xrotation
                        JOINT RightHandThumbEnd
                        {
                          OFFSET -3.183852 4e-06 1e-06
                          CHANNELS 3 Zrotation Yrotation Xrotation
                        }
                      }
                    }
                  }
                  JOINT RightHandIndex1
                  {
                    OFFSET -3.253496 -2.33755 -0.127667
                    CHANNELS 3 Zrotation Yrotation Xrotation
                    JOINT RightHandIndex2
                    {
                      OFFSET -6.344434 0.0 0.0
                      CHANNELS 3 Zrotation Yrotation Xrotation
                      JOINT RightHandIndex3
                      {
                        OFFSET -3.654871 0.0 -8e-06
                        CHANNELS 3 Zrotation Yrotation Xrotation
                        JOINT RightHandIndex4
                        {
                          OFFSET -2.327586 -1e-06 0.0
                          CHANNELS 3 Zrotation Yrotation Xrotation
                          JOINT RightHandIndexEnd
                          {
                            OFFSET -2.770001 3e-06 8e-06
                            CHANNELS 3 Zrotation Yrotation Xrotation
                          }
                        }
                      }
                    }
                  }
                  JOINT RightHandMiddle1
                  {
                    OFFSET -3.168223 -0.944764 0.411762
                    CHANNELS 3 Zrotation Yrotation Xrotation
                    JOINT RightHandMiddle2
                    {
                      OFFSET -6.266691 -1e-06 -4e-06
                      CHANNELS 3 Zrotation Yrotation Xrotation
                      JOINT RightHandMiddle3
                      {
                        OFFSET -4.348901 0.0 0.0
                        CHANNELS 3 Zrotation Yrotation Xrotation
                        JOINT RightHandMiddle4
                        {
                          OFFSET -3.00024 2e-06 -4e-06
                          CHANNELS 3 Zrotation Yrotation Xrotation
                          JOINT RightHandMiddleEnd
                          {
                            OFFSET -2.321477 -4e-06 -4e-06
                            CHANNELS 3 Zrotation Yrotation Xrotation
                          }
                        }
                      }
                    }
                  }
                  JOINT RightHandRing1
                  {
                    OFFSET -2.885654 0.293261 -0.119232
                    CHANNELS 3 Zrotation Yrotation Xrotation
                    JOINT RightHandRing2
                    {
                      OFFSET -6.032835 -1e-06 -4e-06
                      CHANNELS 3 Zrotation Yrotation Xrotation
                      JOINT RightHandRing3
                      {
                        OFFSET -4.33881 0.0 -4e-06
                        CHANNELS 3 Zrotation Yrotation Xrotation
                        JOINT RightHandRing4
                        {
                          OFFSET -2.654903 -4e-06 -4e-06
                          CHANNELS 3 Zrotation Yrotation Xrotation
                          JOINT RightHandRingEnd
                          {
                            OFFSET -1.935122 0.0 4e-06
                            CHANNELS 3 Zrotation Yrotation Xrotation
                          }
                        }
                      }
                    }
                  }
                  JOINT RightHandPinky1
                  {
                    OFFSET -2.866241 1.503904 -0.60527
                    CHANNELS 3 Zrotation Yrotation Xrotation
                    JOINT RightHandPinky2
                    {
                      OFFSET -5.553177 -2e-06 0.0
                      CHANNELS 3 Zrotation Yrotation Xrotation
                      JOINT RightHandPinky3
                      {
                        OFFSET -3.062664 -1e-06 -4e-06
                        CHANNELS 3 Zrotation Yrotation Xrotation
                        JOINT RightHandPinky4
                        {
                          OFFSET -1.546529 2e-06 4e-06
                          CHANNELS 3 Zrotation Yrotation Xrotation
                          JOINT RightHandPinkyEnd
                          {
                            OFFSET -1.952341 0.0 -4e-06
                            CHANNELS 3 Zrotation Yrotation Xrotation
                          }
                        }
                      }
                    }
                  }
                }
              }
            }
          }
        }
      }
    }
    JOINT LeftLeg
    {
      OFFSET -8.443107 2.567604 10.043214
      CHANNELS 3 Zrotation Yrotation Xrotation
      JOINT LeftShin
      {
        OFFSET 43.229198 1e-06 -1e-06
        CHANNELS 3 Zrotation Yrotation Xrotation
        JOINT LeftFoot
        {
          OFFSET 42.298611 1e-06 1e-06
          CHANNELS 3 Zrotation Yrotation Xrotation
          JOINT LeftToeBase
          {
            OFFSET 14.165858 1e-06 0.0
            CHANNELS 3 Zrotation Yrotation Xrotation
            JOINT LeftToeEnd
            {
              OFFSET 6.7141 -0.234461 0.0
              CHANNELS 3 Zrotation Yrotation Xrotation
            }
          }
        }
      }
    }
    JOINT RightLeg
    {
      OFFSET -8.303923 2.592729 -10.047278
      CHANNELS 3 Zrotation Yrotation Xrotation
      JOINT RightShin
      {
        OFFSET -43.369682 0.0 1e-06
        CHANNELS 3 Zrotation Yrotation Xrotation
        JOINT RightFoot
        {
          OFFSET -42.260784 4e-06 2e-06
          CHANNELS 3 Zrotation Yrotation Xrotation
          JOINT RightToeBase
          {
            OFFSET -14.222245 -2e-06 -1e-06
            CHANNELS 3 Zrotation Yrotation Xrotation
            JOINT RightToeEnd
            {
              OFFSET -6.660062 0.232574 -2e-06
              CHANNELS 3 Zrotation Yrotation Xrotation
            }
          }
        }
      }
    }
  }
}
MOTION
Frames: 5
Frame Time: 0.03333333333333333
0.0 0.0 0.0 0.0 -0.0 0.0 -0.001752 99.989861 1.349739 90.754852 0.763771 89.677597 -2.369718 -0.090832 0.109262 -11.84913 -0.680415 0.27815 15.123998 -0.352592 -2.192184 14.011034 1.158592 2.509281 -2.511309 -0.236145 2.599117 -28.917639 -0.566887 2.29362 6e-06 -0.0 -0.0 0.041067 0.031863 0.07141 0.034291 0.058509 0.061196 0.040617 0.001796 0.088957 -66.553955 -80.767517 81.684814 14.347045 -40.133129 -41.640701 54.076794 0.680854 -0.871289 -1.564735 12.355917 -108.632889 17.636625 -26.322735 52.411194 -19.46666 -14.395596 29.410389 -1e-06 -8.774821 -2e-06 16.275263 -17.653316 5.815127 -0.609774 -1.795653 -3.889327 -4.807087 -11.046808 -2.93785 7e-06 -20.976017 1e-06 -5.019969 -25.033552 -4.031878 6e-06 1e-06 1e-06 -10.634531 -5.686969 -3.565588 10.573276 -17.922947 -3.113901 7e-06 -13.821205 1e-06 -0.501774 -31.181501 -4.027013 -11.038733 -59.529881 6.752406 -13.982712 -7.150197 -2.875041 13.77273 -8.401491 -3.218242 0.347732 -34.211544 0.771657 -0.963028 -17.733366 2.62102 -0.0 0.0 1e-06 -17.346413 -20.095215 -4.201782 21.757555 -1.638376 3.866426 2e-06 -6.338823 1e-06 -1.697585 -22.591738 -6.194007 -1e-06 -3e-06 -1e-06 53.902878 -82.394775 144.498703 14.800531 -33.519939 -55.84803 64.190483 -1.994936 0.668958 -3.967511 28.589411 -94.984024 22.182106 -20.375912 49.933331 -16.701811 -16.74353 28.476532 -5e-06 -12.690598 1e-06 17.424847 -18.254595 3.097692 -0.105919 -1.513857 -4.275883 -5.039041 -5.612869 -2.953555 6e-06 -11.020526 -0.0 -6.111291 -15.89533 -3.840472 -1e-06 1e-06 -0.0 -10.28337 -5.680288 -4.341839 11.028295 -11.302402 -2.372633 -1.384268 -14.238577 -6.320121 -0.625437 -26.924187 -3.827599 -4.744921 -49.692608 -2.684919 -13.708524 -7.363475 -3.72094 18.141148 -14.052739 -3.242674 8e-06 -18.78727 -1e-06 -0.429713 -8.456044 2.555505 0.0 0.0 -0.0 -15.923536 -20.094482 -5.473586 30.419214 -7.190825 1.735922 3e-06 -8.162927 -0.0 -1.861902 -22.861467 -6.167939 -0.0 -3e-06 -1e-06 175.544266 -2.528576 -12.197654 15.395084 -0.039869 0.052217 -78.754951 0.543723 -2.683195 -6.648118 1.557175 2.10816 -0.999999 0.0 0.0 -6.205356 -5.820004 -12.622036 17.396564 0.027068 -0.080463 -78.484428 -0.586157 -5.2191 -6.366184 0.651033 1.638366 -1.000002 -0.0 -0.0 
0.0 0.0 0.0 0.0 -0.0 0.0 0.132616 100.001694 1.233833 90.786934 0.521245 89.576996 -2.293928 -0.117373 0.10723 -11.832252 -0.662012 0.279902 15.124307 -0.351745 -2.21786 13.698719 1.179434 2.479475 -2.512684 -0.245292 2.644367 -29.565788 -0.634021 2.362231 6e-06 -0.0 -0.0 0.040753 0.039724 0.084174 0.042813 0.057547 0.07129 0.046757 0.018657 0.104709 -67.140587 -80.778099 82.403664 13.92174 -40.587006 -41.495274 54.367405 0.536744 -0.865533 -1.742868 12.037959 -107.478767 17.636625 -26.322737 52.411213 -19.466665 -14.395596 29.410395 -0.0 -8.774822 -2e-06 16.24123 -17.648916 5.840959 -0.609779 -1.795654 -3.88933 -4.807091 -11.046813 -2.93785 6e-06 -20.976021 0.0 -5.019969 -25.03356 -4.031881 6e-06 -1e-06 -2e-06 -10.634537 -5.686971 -3.565588 10.573277 -17.922953 -3.113902 4e-06 -13.821211 -0.0 -0.501773 -31.181511 -4.02702 -11.111363 -59.572079 6.791074 -13.982719 -7.1502 -2.875041 13.772735 -8.401492 -3.218244 0.347736 -34.211555 0.771652 -0.96303 -17.733372 2.621021 1e-06 -1e-06 1e-06 -17.346426 -20.095221 -4.201784 21.757561 -1.638374 3.86643 3e-06 -6.338827 2e-06 -1.697588 -22.591749 -6.194012 -1e-06 -3e-06 -1e-06 54.548553 -82.220497 143.987961 14.244849 -34.163887 -55.261349 65.145622 -2.043044 0.588969 -4.501327 28.556795 -94.180412 22.182116 -20.375895 49.933319 -16.701817 -16.74353 28.47653 -4e-06 -12.6906 -1e-06 17.456049 -18.284691 3.090191 -0.10592 -1.513857 -4.275881 -5.039041 -5.612872 -2.953557 4e-06 -11.020521 -1e-06 -6.111297 -15.89533 -3.84047 -1e-06 -1e-06 -0.0 -10.28337 -5.680288 -4.341836 11.028292 -11.302405 -2.372633 -1.384268 -14.23858 -6.32012 -0.625437 -26.924187 -3.8276 -4.749558 -49.813839 -2.686677 -13.708526 -7.363479 -3.720937 18.141153 -14.052737 -3.242676 7e-06 -18.78727 -3e-06 -0.429713 -8.456041 2.555504 1e-06 -1e-06 0.0 -15.923536 -20.094482 -5.473582 30.41921 -7.190824 1.735925 4e-06 -8.162927 -1e-06 -1.861903 -22.861469 -6.167941 1e-06 -3e-06 -1e-06 175.204453 -2.393351 -12.157741 15.424022 -0.040438 0.046415 -78.707382 0.378546 -2.627058 -6.686087 1.558393 2.10426 -0.999999 -0.0 0.0 -6.570847 -5.939966 -12.549851 17.411697 0.019169 -0.071687 -78.365929 -0.495343 -5.272065 -6.400216 0.661149 1.638919 -1.000002 1e-06 -0.0 
0.0 0.0 0.0 0.0 -0.0 0.0 0.266123 100.013176 1.141087 90.822556 0.269122 89.512085 -2.229409 -0.154072 0.092012 -11.833733 -0.655994 0.270089 15.129571 -0.358304 -2.244922 13.401522 1.211891 2.457311 -2.515816 -0.256283 2.686009 -30.287607 -0.737042 2.454921 6e-06 -0.0 -0.0 0.042639 0.047168 0.094301 0.048521 0.055451 0.079034 0.047974 0.03592 0.117422 -67.998993 -80.77932 83.398438 13.520686 -41.054459 -41.369392 54.745827 0.380915 -0.868694 -1.972844 11.754239 -106.078789 17.636629 -26.322721 52.411182 -19.466661 -14.395592 29.410381 -1e-06 -8.774821 -2e-06 16.20178 -17.669779 5.869178 -0.609774 -1.795653 -3.889326 -4.80709 -11.04681 -2.93785 4e-06 -20.976015 1e-06 -5.019972 -25.033556 -4.031883 6e-06 -0.0 1e-06 -10.634535 -5.686971 -3.565585 10.573271 -17.922947 -3.1139 1e-06 -13.821209 -1e-06 -0.501779 -31.181501 -4.027018 -11.175828 -59.593983 6.829269 -13.982711 -7.150198 -2.875041 13.772727 -8.401492 -3.21824 0.347736 -34.211555 0.771652 -0.963029 -17.733372 2.621021 -1e-06 0.0 -0.0 -17.346422 -20.095219 -4.201779 21.757557 -1.638373 3.866428 3e-06 -6.338825 1e-06 -1.697592 -22.591742 -6.194008 -0.0 -4e-06 -1e-06 54.981522 -81.961296 143.721024 13.49509 -34.951271 -54.402401 66.122063 -2.029554 0.522038 -5.142982 28.498457 -93.454071 22.182106 -20.375887 49.933308 -16.701811 -16.743528 28.476528 -1e-06 -12.690596 -1e-06 17.493959 -18.349091 3.03815 -0.10592 -1.513856 -4.275881 -5.039039 -5.61287 -2.953555 3e-06 -11.020519 -3e-06 -6.111297 -15.895328 -3.840471 -0.0 -1e-06 1e-06 -10.283367 -5.680287 -4.341838 11.028291 -11.302401 -2.372633 -1.384268 -14.238577 -6.320119 -0.625437 -26.924179 -3.827602 -4.745872 -49.829281 -2.696153 -13.708522 -7.363472 -3.720938 18.141146 -14.052732 -3.242674 6e-06 -18.787266 -3e-06 -0.429711 -8.456041 2.555502 1e-06 0.0 -0.0 -15.923532 -20.094479 -5.473584 30.419205 -7.19082 1.735925 3e-06 -8.162925 -0.0 -1.861904 -22.861464 -6.167941 0.0 -4e-06 -1e-06 174.858749 -2.256395 -12.098122 15.445233 -0.041131 0.03507 -78.657867 0.223014 -2.561557 -6.70415 1.553004 2.099086 -0.999999 0.0 -0.0 -6.926109 -6.06828 -12.535797 17.425253 0.01003 -0.069335 -78.263817 -0.36448 -5.309629 -6.408615 0.668205 1.63931 -1.000001 0.0 0.0 
0.0 0.0 0.0 0.0 -0.0 0.0 0.397162 100.021515 1.072146 90.861275 0.027394 89.467468 -2.190045 -0.202038 0.070842 -11.839199 -0.664881 0.247431 15.136937 -0.371617 -2.270456 13.117382 1.233894 2.45797 -2.533099 -0.261972 2.697148 -30.966127 -0.83523 2.576638 6e-06 0.0 -0.0 0.042401 0.049982 0.091311 0.044825 0.05024 0.074421 0.041308 0.04695 0.116068 -69.261902 -80.76152 84.819923 13.21843 -41.527351 -41.360725 55.204552 0.225473 -0.892464 -2.240669 11.555132 -104.624489 17.636641 -26.322733 52.411201 -19.466663 -14.395598 29.410393 0.0 -8.774825 -4e-06 16.158358 -17.708319 5.890454 -0.609776 -1.795653 -3.889329 -4.807088 -11.046812 -2.937852 5e-06 -20.976021 0.0 -5.01997 -25.033562 -4.031885 6e-06 -0.0 -1e-06 -10.634537 -5.686972 -3.565587 10.573274 -17.922953 -3.113899 3e-06 -13.821214 -0.0 -0.501778 -31.181505 -4.027019 -11.224094 -59.59774 6.864918 -13.982717 -7.150198 -2.875042 13.772733 -8.401492 -3.21824 0.347734 -34.211559 0.771653 -0.963031 -17.733372 2.621022 -0.0 -0.0 -0.0 -17.346424 -20.095219 -4.20178 21.757559 -1.638376 3.86643 0.0 -6.338826 2e-06 -1.697589 -22.591749 -6.194007 1e-06 -4e-06 -1e-06 54.975628 -81.634254 143.883377 12.52587 -35.869133 -53.310825 67.098663 -2.00289 0.463533 -5.918671 28.42424 -92.747208 22.182114 -20.375904 49.933331 -16.701817 -16.74353 28.476536 -3e-06 -12.690601 1e-06 17.533873 -18.437263 2.950679 -0.10592 -1.513855 -4.275883 -5.039041 -5.612873 -2.953557 4e-06 -11.020528 -1e-06 -6.111298 -15.895334 -3.840471 -0.0 -2e-06 0.0 -10.283371 -5.680289 -4.341838 11.028298 -11.302406 -2.372633 -1.384269 -14.238582 -6.32012 -0.625437 -26.924192 -3.8276 -4.731188 -49.787594 -2.71249 -13.708524 -7.363477 -3.720938 18.141148 -14.052739 -3.242674 9e-06 -18.787271 -2e-06 -0.429711 -8.456043 2.555504 1e-06 -0.0 0.0 -15.923536 -20.094484 -5.473584 30.419214 -7.190827 1.735925 4e-06 -8.162929 -1e-06 -1.861903 -22.861473 -6.167942 0.0 -2e-06 -1e-06 174.534515 -2.127517 -12.047703 15.475035 -0.041445 0.027298 -78.625069 0.104454 -2.511524 -6.721896 1.538913 2.093839 -1.0 -0.0 -0.0 -7.258907 -6.194652 -12.532105 17.456264 0.000923 -0.078845 -78.192558 -0.243365 -5.341375 -6.399401 0.669987 1.63951 -1.000002 -0.0 -0.0 
0.0 0.0 0.0 0.0 -0.0 0.0 0.519091 100.027313 1.02795 90.897156 -0.177305 89.442596 -2.169265 -0.254801 0.056608 -11.84447 -0.6823 0.207276 15.145683 -0.396028 -2.293777 12.851173 1.244691 2.477548 -2.554017 -0.26774 2.672978 -31.567694 -0.931902 2.667381 4e-06 0.0 -0.0 0.041283 0.046633 0.074011 0.04171 0.039918 0.056801 0.038062 0.05055 0.099272 -70.86747 -80.75737 86.583191 13.04014 -41.987076 -41.501755 55.750862 0.076308 -0.933159 -2.550256 11.473244 -103.29158 17.636627 -26.322729 52.411194 -19.466658 -14.395597 29.410389 -1e-06 -8.774822 -2e-06 16.113754 -17.756844 5.911932 -0.609777 -1.795654 -3.889325 -4.807091 -11.046809 -2.937851 5e-06 -20.976019 4e-06 -5.019972 -25.033558 -4.031878 6e-06 -1e-06 -2e-06 -10.634533 -5.686969 -3.565588 10.573271 -17.922951 -3.113899 3e-06 -13.821209 1e-06 -0.501777 -31.181501 -4.027017 -11.256395 -59.570465 6.866262 -13.982714 -7.150196 -2.875039 13.772731 -8.401491 -3.218241 0.347736 -34.211544 0.771654 -0.963029 -17.733366 2.621021 1e-06 -0.0 -0.0 -17.346416 -20.095217 -4.201782 21.757557 -1.638377 3.866431 1e-06 -6.338825 2e-06 -1.697589 -22.591745 -6.194006 1e-06 -5e-06 -1e-06 54.710419 -81.255402 144.303833 11.418281 -36.904114 -52.148972 68.084702 -2.024865 0.381033 -6.850767 28.355949 -92.164848 22.18211 -20.375898 49.933327 -16.701818 -16.74353 28.476534 -1e-06 -12.690603 1e-06 17.60293 -18.545361 2.826396 -0.10592 -1.513855 -4.275881 -5.039041 -5.612873 -2.953557 3e-06 -11.020525 -1e-06 -6.111297 -15.895336 -3.840471 1e-06 -1e-06 -2e-06 -10.283371 -5.680288 -4.341839 11.028296 -11.302404 -2.372635 -1.384269 -14.238583 -6.320121 -0.625437 -26.924198 -3.827603 -4.698234 -49.758881 -2.759432 -13.708526 -7.363475 -3.72094 18.141151 -14.052739 -3.242675 8e-06 -18.787271 -4e-06 -0.429711 -8.456043 2.555503 1e-06 -0.0 0.0 -15.923538 -20.094484 -5.473583 30.419218 -7.190825 1.735923 3e-06 -8.162927 -1e-06 -1.861903 -22.861471 -6.167943 1e-06 -4e-06 -1e-06 174.263535 -2.013871 -11.998004 15.502962 -0.037045 0.023483 -78.604828 0.023026 -2.492664 -6.731376 1.520539 2.089016 -0.999998 0.0 0.0 -7.53077 -6.312918 -12.56591 17.485037 -0.010697 -0.085636 -78.142296 -0.13474 -5.362641 -6.384316 0.664804 1.639863 -1.0 -1e-06 0.0 
